<?xml version="1.0" encoding="UTF-8"?>
<svg width="15px" height="12px" viewBox="0 0 15 12" version="1.1" xmlns="http://www.w3.org/2000/svg" xmlns:xlink="http://www.w3.org/1999/xlink">
    <title>9388B83A-559C-465E-A690-7BEE8A6129B1</title>
    <defs>
        <path d="M9.33398438,3.61739522 L9.33398438,2.35159861 C9.33398438,1.43401464 8.62428516,0.6875 7.75195312,0.6875 L1.58203125,0.6875 C0.709699219,0.6875 0,1.43401464 0,2.35159861 L0,8.8415832 C0,9.75916718 0.709699219,10.5056818 1.58203125,10.5056818 L7.75195312,10.5056818 C8.62428516,10.5056818 9.33398438,9.75916718 9.33398438,8.8415832 L9.33398438,7.60352157 L13.5,9.79458475 L13.5,1.42633205 L9.33398438,3.61739522 Z M8.27929688,8.8415832 C8.27929688,9.14744453 8.04273047,9.39628274 7.75195312,9.39628274 L1.58203125,9.39628274 C1.29125391,9.39628274 1.0546875,9.14744453 1.0546875,8.8415832 L1.0546875,2.35159861 C1.0546875,2.04573729 1.29125391,1.79689908 1.58203125,1.79689908 L7.75195312,1.79689908 C8.04273047,1.79689908 8.27929688,2.04573729 8.27929688,2.35159861 L8.27929688,8.8415832 Z M12.4453125,7.99952157 L9.33398437,6.36315794 L9.33398437,4.85775886 L12.4453125,3.22139522 L12.4453125,7.99952157 Z" id="path-1"></path>
    </defs>
    <g id="Page-1" stroke="none" stroke-width="1" fill="none" fill-rule="evenodd">
        <g id="Video-Consultation" transform="translate(-421.000000, -142.000000)">
            <g id="Controls/Button/circle" transform="translate(413.000000, 133.000000)">
                <g id="3-.ic/solid/ic_tick" transform="translate(8.250000, 9.250000)">
                    <mask id="mask-2" fill="white">
                        <use xlink:href="#path-1"></use>
                    </mask>
                    <use id="Mask" fill="#F1EFFA" xlink:href="#path-1"></use>
                </g>
            </g>
        </g>
    </g>
</svg>