<?xml version="1.0" encoding="UTF-8"?>
<svg width="18px" height="18px" viewBox="0 0 18 18" version="1.1" xmlns="http://www.w3.org/2000/svg" xmlns:xlink="http://www.w3.org/1999/xlink">
    <title>3 .ic/solid/calendar</title>
    <defs>
        <path d="M12.8816614,0 C13.3490972,0 13.7280564,0.366327273 13.7280564,0.818181818 L13.7280564,0.818181818 L13.7280564,3.27272727 L16.2672414,3.27272727 C16.7346771,3.27272727 17.1136364,3.63905455 17.1136364,4.09090909 L17.1136364,4.09090909 L17.1136364,17.1818182 C17.1136364,17.6336727 16.7346771,18 16.2672414,18 L16.2672414,18 L4.98197492,18 C4.51453918,18 4.13557994,17.6336727 4.13557994,17.1818182 L4.13557994,17.1818182 L4.13557994,14.7272727 L1.59639498,14.7272727 C1.12895925,14.7272727 0.75,14.3609455 0.75,13.9090909 L0.75,13.9090909 L0.75,0.818181818 C0.75,0.366327273 1.12895925,0 1.59639498,0 L1.59639498,0 Z M15.4208464,4.90909091 L5.82836991,4.90909091 L5.82836991,16.3636364 L15.4208464,16.3636364 L15.4208464,4.90909091 Z M12.8816614,13.0909091 C13.3490972,13.0909091 13.7280564,13.4572364 13.7280564,13.9090909 C13.7280564,14.3609455 13.3490972,14.7272727 12.8816614,14.7272727 L12.8816614,14.7272727 L8.36755486,14.7272727 C7.90011912,14.7272727 7.52115987,14.3609455 7.52115987,13.9090909 C7.52115987,13.4572364 7.90011912,13.0909091 8.36755486,13.0909091 L8.36755486,13.0909091 Z M12.0352665,1.63636364 L2.44278997,1.63636364 L2.44278997,13.0909091 L4.13557994,13.0909091 L4.13557994,4.09090909 C4.13557994,3.63905455 4.51453918,3.27272727 4.98197492,3.27272727 L4.98197492,3.27272727 L12.0352665,3.27272727 L12.0352665,1.63636364 Z M12.8816614,9.81818182 C13.3490972,9.81818182 13.7280564,10.1845091 13.7280564,10.6363636 C13.7280564,11.0882182 13.3490972,11.4545455 12.8816614,11.4545455 L12.8816614,11.4545455 L8.36755486,11.4545455 C7.90011912,11.4545455 7.52115987,11.0882182 7.52115987,10.6363636 C7.52115987,10.1845091 7.90011912,9.81818182 8.36755486,9.81818182 L8.36755486,9.81818182 Z M12.8816614,6.54545455 C13.3490972,6.54545455 13.7280564,6.91178182 13.7280564,7.36363636 C13.7280564,7.81549091 13.3490972,8.18181818 12.8816614,8.18181818 L12.8816614,8.18181818 L8.36755486,8.18181818 C7.90011912,8.18181818 7.52115987,7.81549091 7.52115987,7.36363636 C7.52115987,6.91178182 7.90011912,6.54545455 8.36755486,6.54545455 L8.36755486,6.54545455 Z" id="path-1"></path>
    </defs>
    <g id="Page-1" stroke="none" stroke-width="1" fill="none" fill-rule="evenodd">
        <g id="Video-Consultation" transform="translate(-654.000000, -284.000000)">
            <g id="Group-2" transform="translate(498.000000, 233.000000)">
                <g id="3-.ic/solid/calendar" transform="translate(156.000000, 51.000000)">
                    <mask id="mask-2" fill="white">
                        <use xlink:href="#path-1"></use>
                    </mask>
                    <use id="Mask" fill="#6554C0" xlink:href="#path-1"></use>
                </g>
            </g>
        </g>
    </g>
</svg>