<?xml version="1.0" encoding="UTF-8"?>
<svg width="18px" height="18px" viewBox="0 0 18 18" version="1.1" xmlns="http://www.w3.org/2000/svg" xmlns:xlink="http://www.w3.org/1999/xlink">
    <title>3 .ic/solid/share</title>
    <defs>
        <path d="M5.39575696,3.67526952 C5.82173777,3.67526952 6.24771858,3.95753022 6.24771858,4.38092127 C6.24771858,4.80431232 5.89273457,5.15713819 5.46675376,5.15713819 L5.46675376,5.15713819 L2.76887528,5.15713819 C2.05890726,5.15713819 1.49093284,5.72165959 1.49093284,6.42731134 L1.49093284,6.42731134 L1.49093284,15.2479582 C1.49093284,15.9536099 2.05890726,16.5181313 2.76887528,16.5181313 L2.76887528,16.5181313 L12.9924148,16.5181313 C13.7023828,16.5181313 14.2703572,15.9536099 14.2703572,15.2479582 L14.2703572,15.2479582 L14.2703572,13.0604378 C14.2703572,12.6370467 14.6253412,12.2842208 15.051322,12.2842208 C15.4773029,12.2842208 15.7612901,12.6370467 15.8322869,13.0604378 L15.8322869,13.0604378 L15.8322869,15.2479582 C15.8322869,16.800392 14.5543444,18 13.0634116,18 L13.0634116,18 L2.76887528,18 C1.20694564,18 -3.55271368e-14,16.800392 -3.55271368e-14,15.2479582 L-3.55271368e-14,15.2479582 L-3.55271368e-14,6.42731134 C-3.55271368e-14,4.94544267 1.20694564,3.67526952 2.76887528,3.67526952 L2.76887528,3.67526952 Z M12.7364079,0.0422033524 C12.9493983,-0.0283618224 13.2333856,-0.0283618224 13.446376,0.183333702 L13.446376,0.183333702 L17.7771809,4.41724419 C18.0611681,4.69950489 18.0611681,5.05233076 17.8481777,5.33459146 L17.8481777,5.33459146 L13.5173728,9.56850195 C13.3043824,9.78019747 13.0203951,9.78019747 12.8074047,9.7096323 C12.5234175,9.63906712 12.3814239,9.4273716 12.3814239,9.1451109 L12.3814239,9.1451109 L12.3814239,7.16928601 C11.4584655,7.16928601 9.68354545,7.52211188 8.26360941,9.85076265 L8.26360941,9.85076265 L7.9796222,10.2741537 C7.8376286,10.415284 7.62463819,10.5564144 7.41164778,10.5564144 L7.41164778,10.5564144 L7.26965418,10.5564144 C7.05666377,10.5564144 6.84367337,10.3447189 6.77267656,10.0624582 L6.77267656,10.0624582 L6.70167976,9.56850195 L6.70167976,9.56850195 L6.69551679,9.51196539 C6.61740671,8.77372881 6.41577372,5.90864869 8.90258063,3.71159244 C9.11557103,3.49989692 10.1805231,2.65311482 12.3104271,2.51198447 L12.3104271,2.51198447 L12.3104271,0.606724751 C12.3104271,0.395029226 12.5234175,0.112768527 12.7364079,0.0422033524 Z M13.6593664,2.22972377 L13.6593664,3.21763622 C13.6593664,3.57046209 13.3753792,3.85272279 13.0203951,3.85272279 L13.0203951,3.85272279 L12.9493983,3.85272279 C10.8194943,3.85272279 9.82553905,4.69950489 9.82553905,4.69950489 L9.82553905,4.69950489 L9.60874809,4.87734694 C8.49846388,5.84368623 8.11326324,7.08211726 7.9796222,7.94550293 C9.96753266,5.61685216 12.3104271,5.75798251 13.0913919,5.89911286 C13.446376,5.96967803 13.6593664,6.25193873 13.6593664,6.53419943 L13.6593664,6.53419943 L13.6593664,7.59267705 L16.4282416,4.91120041 L13.6593664,2.22972377 Z" id="path-1"></path>
    </defs>
    <g id="Page-1" stroke="none" stroke-width="1" fill="none" fill-rule="evenodd">
        <g id="Video-Consultation" transform="translate(-520.000000, -284.000000)">
            <g id="Group-2" transform="translate(498.000000, 233.000000)">
                <g id="3-.ic/solid/share" transform="translate(22.000000, 51.000000)">
                    <mask id="mask-2" fill="white">
                        <use xlink:href="#path-1"></use>
                    </mask>
                    <use id="Mask" fill="#6554C0" xlink:href="#path-1"></use>
                </g>
            </g>
        </g>
    </g>
</svg>